<?xml version="1.0" standalone="no"?>
<!DOCTYPE svg PUBLIC "-//W3C//DTD SVG 20010904//EN"
 "http://www.w3.org/TR/2001/REC-SVG-20010904/DTD/svg10.dtd">
<svg version="1.0" xmlns="http://www.w3.org/2000/svg"
 width="241.000000pt" height="241.000000pt" viewBox="0 0 241.000000 241.000000"
 preserveAspectRatio="xMidYMid meet">
<metadata>
Created by potrace 1.15, written by Peter Selinger 2001-2017
</metadata>
<g transform="translate(0.000000,241.000000) scale(0.100000,-0.100000)"
fill="#0482ff" stroke="none">
<path d="M993 2345 c-478 -87 -864 -475 -948 -954 -19 -107 -19 -295 0 -402
84 -481 473 -871 953 -954 108 -19 296 -19 403 0 481 84 871 473 954 953 8 47
15 111 15 143 l0 59 -124 0 -124 0 -6 -67 c-42 -408 -316 -730 -703 -825 -124
-30 -304 -30 -426 0 -334 83 -598 346 -678 677 -31 126 -31 306 -1 428 95 386
414 658 820 702 l62 7 0 124 0 124 -62 -1 c-35 0 -95 -7 -135 -14z"/>
<path d="M1326 2327 c-8 -34 -26 -187 -26 -214 0 -18 6 -23 24 -23 13 0 68
-11 122 -25 53 -14 99 -23 101 -22 11 12 92 221 88 228 -7 10 -118 44 -190 58
-116 22 -114 22 -119 -2z"/>
<path d="M1671 2118 l-59 -112 63 -37 c35 -20 81 -51 103 -69 22 -18 44 -31
49 -29 4 2 46 43 91 91 l84 86 -54 43 c-58 46 -134 97 -185 123 l-32 16 -60
-112z"/>
<path d="M1040 1965 c-308 -66 -551 -310 -614 -617 -9 -42 -16 -98 -16 -123
l0 -45 83 0 84 0 11 79 c22 152 76 264 178 365 242 243 626 243 868 0 305
-304 212 -817 -179 -994 -59 -27 -117 -43 -202 -55 l-43 -7 0 -84 0 -84 39 0
c58 0 169 25 246 56 186 75 357 243 434 427 217 525 -170 1101 -736 1096 -48
0 -117 -7 -153 -14z"/>
<path d="M1960 1899 l-89 -80 48 -62 c26 -34 58 -80 71 -102 13 -22 24 -41 26
-43 3 -5 224 108 224 115 0 28 -160 253 -180 253 -5 0 -50 -36 -100 -81z"/>
<path d="M2171 1569 c-57 -21 -105 -40 -107 -42 -2 -2 7 -48 21 -101 14 -54
25 -110 25 -123 l0 -25 123 7 c67 4 125 10 130 14 19 18 -54 312 -77 310 -6
-1 -58 -18 -115 -40z"/>
<path d="M1117 1446 c-58 -21 -105 -57 -138 -105 -92 -139 -46 -314 105 -394
58 -31 174 -31 232 0 80 43 137 119 150 202 6 41 6 41 -25 41 -25 0 -32 -5
-36 -27 -29 -147 -184 -222 -309 -149 -166 97 -116 347 77 380 33 6 37 10 37
36 0 26 -4 30 -27 30 -16 -1 -45 -7 -66 -14z"/>
</g>
</svg>
