<?xml version="1.0" standalone="no"?>
<!DOCTYPE svg PUBLIC "-//W3C//DTD SVG 20010904//EN"
 "http://www.w3.org/TR/2001/REC-SVG-20010904/DTD/svg10.dtd">
<svg version="1.0" xmlns="http://www.w3.org/2000/svg"
 width="512.000000pt" height="512.000000pt" viewBox="0 0 512.000000 512.000000"
 preserveAspectRatio="xMidYMid meet">
<metadata>
Created by potrace 1.15, written by Peter Selinger 2001-2017
</metadata>
<g transform="translate(0.000000,512.000000) scale(0.100000,-0.100000)"
fill="#000000" stroke="none">
<path d="M1195 5096 c-102 -34 -161 -71 -241 -150 -71 -71 -107 -128 -148
-236 -20 -53 -21 -76 -24 -607 l-3 -553 -122 0 c-148 0 -238 -18 -337 -66 -98
-48 -211 -160 -257 -255 -65 -132 -64 -113 -61 -890 3 -701 3 -704 25 -763 65
-171 201 -308 366 -367 51 -18 89 -23 224 -27 l161 -4 4 -357 c4 -329 6 -360
25 -411 39 -107 76 -165 147 -236 80 -79 151 -122 250 -153 68 -21 76 -21
1352 -21 l1283 0 79 25 c177 56 317 191 384 372 21 55 22 78 26 420 l3 361
167 4 c140 4 177 9 229 27 165 59 301 196 366 367 22 59 22 62 25 763 3 777 4
758 -61 890 -46 95 -159 207 -257 255 -100 49 -188 66 -342 66 l-127 0 -3 558
c-3 545 -4 558 -25 615 -69 182 -208 316 -385 372 l-79 25 -1287 0 -1287 -1
-70 -23z m2625 -398 c26 -14 57 -41 75 -66 l30 -44 3 -519 3 -519 -1376 0
-1376 0 3 513 3 514 30 48 c20 32 45 56 74 72 l44 23 1221 0 1222 0 44 -22z
m548 -1587 c22 -11 58 -41 80 -66 121 -138 86 -347 -75 -442 -61 -35 -172 -44
-240 -18 -108 42 -185 154 -185 270 0 214 229 353 420 256z m-440 -1765 l-3
-814 -30 -44 c-18 -25 -49 -52 -75 -65 l-44 -23 -1222 0 -1221 0 -44 23 c-29
16 -54 40 -74 72 l-30 48 -3 809 -3 808 1376 0 1375 0 -2 -814z"/>
<path d="M1570 1575 l0 -205 990 0 990 0 0 205 0 205 -990 0 -990 0 0 -205z"/>
<path d="M1570 985 l0 -205 695 0 695 0 0 205 0 205 -695 0 -695 0 0 -205z"/>
</g>
</svg>
